<?xml version="1.0" encoding="UTF-8" standalone="no"?>
<!-- Created with Inkscape (http://www.inkscape.org/) -->

<svg
   width="9.7139711mm"
   height="19.136293mm"
   viewBox="0 0 9.7139711 19.136293"
   version="1.1"
   id="svg1"
   inkscape:version="1.3.2 (091e20e, 2023-11-25)"
   sodipodi:docname="mixing-2.svg"
   xmlns:inkscape="http://www.inkscape.org/namespaces/inkscape"
   xmlns:sodipodi="http://sodipodi.sourceforge.net/DTD/sodipodi-0.dtd"
   xmlns="http://www.w3.org/2000/svg"
   xmlns:svg="http://www.w3.org/2000/svg">
  <sodipodi:namedview
     id="namedview1"
     pagecolor="#ffffff"
     bordercolor="#000000"
     borderopacity="0.25"
     inkscape:showpageshadow="2"
     inkscape:pageopacity="0.0"
     inkscape:pagecheckerboard="0"
     inkscape:deskcolor="#d1d1d1"
     inkscape:document-units="mm"
     inkscape:zoom="3.4597828"
     inkscape:cx="37.719131"
     inkscape:cy="25.57964"
     inkscape:window-width="1472"
     inkscape:window-height="840"
     inkscape:window-x="0"
     inkscape:window-y="38"
     inkscape:window-maximized="0"
     inkscape:current-layer="layer1" />
  <defs
     id="defs1" />
  <g
     inkscape:label="Vrstva 1"
     inkscape:groupmode="layer"
     id="layer1"
     transform="translate(-100.27708,-138.90624)">
    <g
       style="display:inline;stroke-width:0.938699"
       id="g17576-0-1"
       transform="matrix(0,0.20720424,-0.20722832,0,-182.85495,-252.12019)">
      <g
         style="stroke-width:0.782249"
         transform="matrix(-0.29355175,0.50838747,0.50850562,0.29355175,3201.7958,-1940.442)"
         id="g17490-3-6">
        <circle
           transform="translate(0,-3107.4802)"
           style="fill:#00ff00;fill-opacity:1;stroke:none;stroke-width:0.782249"
           id="path17451-0-5"
           inkscape:transform-center-y="-17.716536"
           cx="1902.7559"
           cy="1700.7875"
           r="17.716536" />
        <circle
           style="fill:#ff0000;fill-opacity:1;stroke:none;stroke-width:0.782249"
           id="path17453-2-7"
           transform="rotate(120,2799.8081,157.67729)"
           inkscape:transform-center-y="5.3149818"
           inkscape:transform-center-x="-9.2057571"
           cx="1902.7559"
           cy="1700.7875"
           r="17.716536" />
        <circle
           inkscape:transform-center-x="9.2058352"
           inkscape:transform-center-y="5.3149734"
           transform="rotate(-120,1005.7036,157.67731)"
           id="path17455-5-8"
           style="fill:#0000ff;fill-opacity:1;stroke:none;stroke-width:0.782249"
           cx="1902.7559"
           cy="1700.7875"
           r="17.716536" />
        <path
           id="path17457-1-0"
           d="m 1902.75,-1405.8864 c -2.4615,1.4942 -4.5836,3.6115 -6.125,6.2812 -1.5455,2.6769 -2.3153,5.5823 -2.375,8.4688 2.5246,1.3842 5.4177,2.1562 8.5,2.1562 0.6115,0 1.2169,-0.033 1.8125,-0.094 2.4063,-0.2443 4.6638,-0.9528 6.6875,-2.0624 -0.06,-2.8865 -0.7982,-5.7919 -2.3438,-8.4688 -1.5413,-2.6697 -3.6947,-4.787 -6.1562,-6.2812 z"
           style="fill:#ffffff;fill-opacity:1;stroke:none;stroke-width:0.782249"
           inkscape:connector-curvature="0" />
        <path
           sodipodi:nodetypes="ccccccc"
           inkscape:connector-curvature="0"
           id="path17459-1-6"
           d="m 1911.25,-1408.4536 c -2.9973,0.1208 -5.8971,1.0354 -8.4688,2.5938 2.4462,1.4929 4.5914,3.5936 6.125,6.25 1.5401,2.6673 2.2792,5.5611 2.3438,8.4374 5.3567,-2.9468 9.028,-8.5812 9.1875,-15.0937 -2.5449,-1.3904 -5.2769,-2.1168 -8,-2.1875 -0.3927,-0.01 -0.7964,-0.016 -1.1875,0 z"
           style="fill:#ffff00;fill-opacity:1;stroke:none;stroke-width:0.782249" />
        <path
           sodipodi:nodetypes="cccscc"
           inkscape:connector-curvature="0"
           id="path17461-8-6"
           d="m 1893.0625,-1408.4536 c -2.7251,0.071 -5.4536,0.7951 -8,2.1875 0.1595,6.5125 3.8308,12.1469 9.1875,15.0937 0.064,-2.8763 0.835,-5.7701 2.375,-8.4374 1.5414,-2.6697 3.6635,-4.7871 6.125,-6.2813 -2.9124,-1.7561 -6.2909,-2.6507 -9.6875,-2.5625 z"
           style="fill:#00ffff;fill-opacity:1;stroke:none;stroke-width:0.782249" />
        <path
           sodipodi:nodetypes="ccsccc"
           inkscape:connector-curvature="0"
           id="path17463-3-4"
           d="m 1911.2495,-1391.1411 c -2.0237,1.1096 -4.2812,1.8182 -6.6875,2.0625 -0.5956,0.061 -1.201,0.094 -1.8125,0.094 -3.0823,0 -5.9754,-0.7721 -8.5,-2.1563 -0.1262,6.1228 2.9299,12.143 8.5,15.5313 5.5144,-3.352 8.5543,-9.4738 8.5,-15.5315"
           style="fill:#ff00ff;fill-opacity:1;stroke:none;stroke-width:0.782249" />
      </g>
      <g
         style="stroke-width:0.938699"
         id="g10570">
        <g
           id="g17499-2-9"
           transform="matrix(-0.29356354,-0.50840789,-0.50852605,0.29356354,1724.5801,-6.8216677)"
           style="stroke-width:0.782249">
          <circle
             r="17.716536"
             cy="1700.7875"
             cx="1902.7559"
             style="fill:#ffff00;fill-opacity:1;stroke:none;stroke-width:0.782249"
             id="path17402-9-3"
             inkscape:transform-center-y="-17.716536"
             transform="translate(0,-3160.6298)" />
          <circle
             r="17.716536"
             cy="1700.7875"
             cx="1902.7559"
             style="fill:#ff0000;fill-opacity:1;stroke:none;stroke-width:0.782249"
             id="path17406-9-6"
             transform="rotate(120,2815.1511,131.10249)"
             inkscape:transform-center-y="5.3149818"
             inkscape:transform-center-x="-9.2057571" />
          <circle
             r="17.716536"
             cy="1700.7875"
             cx="1902.7559"
             inkscape:transform-center-x="9.2058352"
             inkscape:transform-center-y="5.3149734"
             transform="rotate(-120,990.3606,131.10251)"
             id="path17408-3-1"
             style="fill:#0000ff;fill-opacity:1;stroke:none;stroke-width:0.782249" />
          <path
             id="path17338-7-5"
             d="m 1902.75,1701.5938 c -2.4615,1.4942 -4.5836,3.6115 -6.125,6.2812 -1.5455,2.6769 -2.3153,5.5823 -2.375,8.4688 2.5246,1.3842 5.4177,2.1562 8.5,2.1562 0.6115,0 1.2169,-0.033 1.8125,-0.094 2.4063,-0.2443 4.6638,-0.9528 6.6875,-2.0624 -0.06,-2.8865 -0.7982,-5.7919 -2.3438,-8.4688 -1.5413,-2.6697 -3.6947,-4.787 -6.1562,-6.2812 z"
             style="fill:#000000;fill-opacity:1;stroke:none;stroke-width:0.782249"
             inkscape:connector-curvature="0"
             transform="translate(0,-3160.6298)" />
          <path
             sodipodi:nodetypes="ccccccc"
             inkscape:connector-curvature="0"
             id="path17412-9-5"
             d="m 1911.25,-1461.6032 c -2.9973,0.1208 -5.8971,1.0354 -8.4688,2.5938 2.4462,1.4929 4.5914,3.5936 6.125,6.25 1.5401,2.6673 2.2792,5.5611 2.3438,8.4374 5.3567,-2.9468 9.028,-8.5812 9.1875,-15.0937 -2.5449,-1.3904 -5.2769,-2.1168 -8,-2.1875 -0.3927,-0.01 -0.7964,-0.016 -1.1875,0 z"
             style="fill:#ff8000;fill-opacity:1;stroke:none;stroke-width:0.782249" />
          <path
             sodipodi:nodetypes="cccscc"
             inkscape:connector-curvature="0"
             id="path17420-3-2"
             d="m 1893.0625,-1461.6032 c -2.7251,0.071 -5.4536,0.7951 -8,2.1875 0.1595,6.5125 3.8308,12.1469 9.1875,15.0937 0.064,-2.8763 0.835,-5.7701 2.375,-8.4374 1.5414,-2.6697 3.6635,-4.7871 6.125,-6.2813 -2.9124,-1.7561 -6.2909,-2.6507 -9.6875,-2.5625 z"
             style="fill:#00ff00;fill-opacity:1;stroke:none;stroke-width:0.782249" />
          <path
             sodipodi:nodetypes="ccsccc"
             inkscape:connector-curvature="0"
             id="path17429-9-4"
             d="m 1911.2495,-1444.2907 c -2.0237,1.1096 -4.2812,1.8182 -6.6875,2.0625 -0.5956,0.061 -1.201,0.094 -1.8125,0.094 -3.0823,0 -5.9754,-0.7721 -8.5,-2.1563 -0.1262,6.1228 2.9299,12.143 8.5,15.5313 5.5144,-3.352 8.5543,-9.4738 8.5,-15.5315"
             style="fill:#ff00ff;fill-opacity:1;stroke:none;stroke-width:0.782249" />
        </g>
        <g
           transform="matrix(-0.47547156,0.82344522,0.8236366,0.47547157,4052.876,-2379.2147)"
           id="g17567-3-8"
           style="stroke-width:0.782249">
          <circle
             r="17.716536"
             cy="1700.7875"
             cx="1902.7559"
             style="fill:#ff00ff;fill-opacity:1;stroke:none;stroke-width:0.782249"
             id="path17467-7-3"
             inkscape:transform-center-y="-17.716536"
             transform="matrix(0.61739076,0,0,0.61739076,815.93904,-2443.9496)" />
          <circle
             r="17.716536"
             cy="1700.7875"
             cx="1902.7559"
             style="fill:#00ffff;fill-opacity:1;stroke:none;stroke-width:0.782249"
             id="path17469-4-9"
             transform="matrix(-0.30869538,0.53467608,-0.53467608,-0.30869538,3493.1088,-1876.3877)"
             inkscape:transform-center-y="5.3149818"
             inkscape:transform-center-x="-9.2057571" />
          <circle
             r="17.716536"
             cy="1700.7875"
             cx="1902.7559"
             inkscape:transform-center-x="9.2058352"
             inkscape:transform-center-y="5.3149734"
             transform="matrix(-0.30869538,-0.53467608,0.53467608,-0.30869538,1663.0009,158.32835)"
             id="path17471-6-0"
             style="fill:#ffff00;fill-opacity:1;stroke:none;stroke-width:0.782249" />
          <path
             id="path17473-7-8"
             d="m 1990.6793,-1393.4013 c -1.5197,0.9225 -2.8299,2.2297 -3.7815,3.8779 -0.9542,1.6527 -1.4295,3.4465 -1.4663,5.2286 1.5587,0.8546 3.3448,1.3312 5.2478,1.3312 0.3775,0 0.7513,-0.02 1.119,-0.058 1.4857,-0.1509 2.8794,-0.5883 4.1288,-1.2733 -0.037,-1.7821 -0.4928,-3.5759 -1.447,-5.2286 -0.9516,-1.6482 -2.2811,-2.9554 -3.8008,-3.878 z"
             style="fill:#000000;fill-opacity:1;stroke:none;stroke-width:0.782249"
             inkscape:connector-curvature="0" />
          <path
             sodipodi:nodetypes="ccccccc"
             inkscape:connector-curvature="0"
             id="path17475-1-7"
             d="m 1995.9271,-1394.9863 c -1.8505,0.075 -3.6408,0.6392 -5.2285,1.6014 1.5102,0.9217 2.8347,2.2186 3.7815,3.8587 0.9508,1.6468 1.4071,3.4334 1.447,5.2092 3.3072,-1.8194 5.5738,-5.298 5.6723,-9.3188 -1.5712,-0.8584 -3.2579,-1.3068 -4.9391,-1.3505 -0.2425,-0.01 -0.4917,-0.01 -0.7332,0 z"
             style="fill:#0000ff;fill-opacity:1;stroke:none;stroke-width:0.782249" />
          <path
             sodipodi:nodetypes="cccscc"
             inkscape:connector-curvature="0"
             id="path17477-9-1"
             d="m 1984.6983,-1394.9863 c -1.6824,0.044 -3.367,0.4909 -4.9391,1.3505 0.099,4.0208 2.3651,7.4994 5.6723,9.3188 0.04,-1.7758 0.5155,-3.5624 1.4663,-5.2092 0.9516,-1.6483 2.2618,-2.9555 3.7815,-3.878 -1.7981,-1.0842 -3.8839,-1.6366 -5.981,-1.5821 z"
             style="fill:#ff0000;fill-opacity:1;stroke:none;stroke-width:0.782249" />
          <path
             sodipodi:nodetypes="ccsccc"
             inkscape:connector-curvature="0"
             id="path17479-4-2"
             d="m 1995.9268,-1384.2977 c -1.2494,0.685 -2.6432,1.1225 -4.1288,1.2733 -0.3677,0.038 -0.7415,0.058 -1.119,0.058 -1.903,0 -3.6892,-0.4767 -5.2478,-1.3313 -0.078,3.7802 1.8089,7.497 5.2478,9.5889 3.4045,-2.0695 5.2813,-5.8491 5.2478,-9.589"
             style="fill:#00fb00;fill-opacity:1;stroke:none;stroke-width:0.782249" />
        </g>
      </g>
    </g>
  </g>
</svg>
