<?xml version="1.0" encoding="UTF-8" standalone="no"?>
<!-- Created with Inkscape (http://www.inkscape.org/) -->

<svg
   xmlns:dc="http://purl.org/dc/elements/1.1/"
   xmlns:cc="http://creativecommons.org/ns#"
   xmlns:rdf="http://www.w3.org/1999/02/22-rdf-syntax-ns#"
   xmlns:svg="http://www.w3.org/2000/svg"
   xmlns="http://www.w3.org/2000/svg"
   xmlns:sodipodi="http://sodipodi.sourceforge.net/DTD/sodipodi-0.dtd"
   xmlns:inkscape="http://www.inkscape.org/namespaces/inkscape"
   width="60.884319pt"
   height="27.735628pt"
   viewBox="0 0 21.478635 9.7845132"
   version="1.1"
   id="svg6909"
   inkscape:version="0.92.3 (2405546, 2018-03-11)"
   sodipodi:docname="color-mixing.svg">
  <defs
     id="defs6903" />
  <sodipodi:namedview
     id="base"
     pagecolor="#ffffff"
     bordercolor="#666666"
     borderopacity="1.0"
     inkscape:pageopacity="0.0"
     inkscape:pageshadow="2"
     inkscape:zoom="5.6"
     inkscape:cx="43.795628"
     inkscape:cy="11.016059"
     inkscape:document-units="mm"
     inkscape:current-layer="layer1"
     showgrid="false"
     fit-margin-top="0.1"
     fit-margin-left="0.1"
     fit-margin-right="0.1"
     fit-margin-bottom="0.1"
     units="pt"
     inkscape:window-width="1920"
     inkscape:window-height="1113"
     inkscape:window-x="1920"
     inkscape:window-y="28"
     inkscape:window-maximized="1" />
  <metadata
     id="metadata6906">
    <rdf:RDF>
      <cc:Work
         rdf:about="">
        <dc:format>image/svg+xml</dc:format>
        <dc:type
           rdf:resource="http://purl.org/dc/dcmitype/StillImage" />
        <dc:title></dc:title>
      </cc:Work>
    </rdf:RDF>
  </metadata>
  <g
     inkscape:groupmode="layer"
     id="layer2"
     inkscape:label="BG"
     style="display:none"
     sodipodi:insensitive="true"
     transform="translate(4.7484695e-6,2.0366443e-6)">
    <rect
       style="color:#000000;clip-rule:nonzero;display:inline;overflow:visible;visibility:visible;opacity:1;isolation:auto;mix-blend-mode:normal;color-interpolation:sRGB;color-interpolation-filters:linearRGB;solid-color:#000000;solid-opacity:1;fill:#000000;fill-opacity:1;fill-rule:nonzero;stroke:none;stroke-width:0.30000001;stroke-linecap:butt;stroke-linejoin:miter;stroke-miterlimit:4;stroke-dasharray:none;stroke-dashoffset:0;stroke-opacity:1;marker:none;color-rendering:auto;image-rendering:auto;shape-rendering:auto;text-rendering:auto;enable-background:accumulate"
       id="rect843"
       width="20.897135"
       height="11.576111"
       x="-1.0857824"
       y="-1.0565968" />
  </g>
  <g
     inkscape:label="Layer 1"
     inkscape:groupmode="layer"
     id="layer1"
     transform="translate(-48.780359,-124.34834)">
    <g
       id="g879">
      <g
         transform="matrix(0.09851972,-0.17064117,-0.170661,-0.09853117,-380.79473,334.29224)"
         id="g17567-3-8"
         style="stroke-width:0.78224897">
        <circle
           r="17.716536"
           cy="1700.7875"
           cx="1902.7559"
           style="fill:#ff00ff;fill-opacity:1;stroke:none;stroke-width:0.78224897"
           id="path17467-7-3"
           inkscape:transform-center-y="-17.716536"
           transform="matrix(0.61739076,0,0,0.61739076,815.93904,-2443.9496)" />
        <circle
           r="17.716536"
           cy="1700.7875"
           cx="1902.7559"
           style="fill:#00ffff;fill-opacity:1;stroke:none;stroke-width:0.78224897"
           id="path17469-4-9"
           transform="matrix(-0.30869538,0.53467608,-0.53467608,-0.30869538,3493.1088,-1876.3877)"
           inkscape:transform-center-y="5.3149818"
           inkscape:transform-center-x="-9.2057571" />
        <circle
           r="17.716536"
           cy="1700.7875"
           cx="1902.7559"
           inkscape:transform-center-x="9.2058352"
           inkscape:transform-center-y="5.3149734"
           transform="matrix(-0.30869538,-0.53467608,0.53467608,-0.30869538,1663.0009,158.32835)"
           id="path17471-6-0"
           style="fill:#ffff00;fill-opacity:1;stroke:none;stroke-width:0.78224897" />
        <path
           id="path17473-7-8"
           d="m 1990.6793,-1393.4013 c -1.5197,0.9225 -2.8299,2.2297 -3.7815,3.8779 -0.9542,1.6527 -1.4295,3.4465 -1.4663,5.2286 1.5587,0.8546 3.3448,1.3312 5.2478,1.3312 0.3775,0 0.7513,-0.02 1.119,-0.058 1.4857,-0.1509 2.8794,-0.5883 4.1288,-1.2733 -0.037,-1.7821 -0.4928,-3.5759 -1.447,-5.2286 -0.9516,-1.6482 -2.2811,-2.9554 -3.8008,-3.878 z"
           style="fill:#000000;fill-opacity:1;stroke:none;stroke-width:0.78224897"
           inkscape:connector-curvature="0" />
        <path
           sodipodi:nodetypes="ccccccc"
           inkscape:connector-curvature="0"
           id="path17475-1-7"
           d="m 1995.9271,-1394.9863 c -1.8505,0.075 -3.6408,0.6392 -5.2285,1.6014 1.5102,0.9217 2.8347,2.2186 3.7815,3.8587 0.9508,1.6468 1.4071,3.4334 1.447,5.2092 3.3072,-1.8194 5.5738,-5.298 5.6723,-9.3188 -1.5712,-0.8584 -3.2579,-1.3068 -4.9391,-1.3505 -0.2425,-0.01 -0.4917,-0.01 -0.7332,0 z"
           style="fill:#0000ff;fill-opacity:1;stroke:none;stroke-width:0.78224897" />
        <path
           sodipodi:nodetypes="cccscc"
           inkscape:connector-curvature="0"
           id="path17477-9-1"
           d="m 1984.6983,-1394.9863 c -1.6824,0.044 -3.367,0.4909 -4.9391,1.3505 0.099,4.0208 2.3651,7.4994 5.6723,9.3188 0.04,-1.7758 0.5155,-3.5624 1.4663,-5.2092 0.9516,-1.6483 2.2618,-2.9555 3.7815,-3.878 -1.7981,-1.0842 -3.8839,-1.6366 -5.981,-1.5821 z"
           style="fill:#ff0000;fill-opacity:1;stroke:none;stroke-width:0.78224897" />
        <path
           sodipodi:nodetypes="ccsccc"
           inkscape:connector-curvature="0"
           id="path17479-4-2"
           d="m 1995.9268,-1384.2977 c -1.2494,0.685 -2.6432,1.1225 -4.1288,1.2733 -0.3677,0.038 -0.7415,0.058 -1.119,0.058 -1.903,0 -3.6892,-0.4767 -5.2478,-1.3313 -0.078,3.7802 1.8089,7.497 5.2478,9.5889 3.4045,-2.0695 5.2813,-5.8491 5.2478,-9.589"
           style="fill:#00fb00;fill-opacity:1;stroke:none;stroke-width:0.78224897" />
      </g>
      <text
         id="text7512"
         y="126.96671"
         x="52.022064"
         style="color:#000000;font-style:normal;font-variant:normal;font-weight:bold;font-stretch:normal;font-size:4.23333311px;line-height:100%;font-family:Roboto;-inkscape-font-specification:'Roboto Bold';text-indent:0;text-align:center;text-decoration:none;text-decoration-line:none;text-decoration-style:solid;text-decoration-color:#000000;letter-spacing:0px;word-spacing:0px;text-transform:none;writing-mode:lr-tb;direction:ltr;baseline-shift:baseline;text-anchor:middle;white-space:normal;clip-rule:nonzero;display:inline;overflow:visible;visibility:visible;opacity:1;isolation:auto;mix-blend-mode:normal;color-interpolation:sRGB;color-interpolation-filters:linearRGB;solid-color:#000000;solid-opacity:1;fill:#ffffff;fill-opacity:1;fill-rule:nonzero;stroke:none;stroke-width:0.26458332px;stroke-linecap:butt;stroke-linejoin:miter;stroke-miterlimit:4;stroke-dasharray:none;stroke-dashoffset:0;stroke-opacity:1;color-rendering:auto;image-rendering:auto;shape-rendering:auto;text-rendering:auto;enable-background:accumulate"
         xml:space="preserve"><tspan
           style="font-style:normal;font-variant:normal;font-weight:normal;font-stretch:normal;font-size:2.82222223px;font-family:'Source Sans Pro';-inkscape-font-specification:'Source Sans Pro Bold';text-align:center;text-anchor:middle;fill:#ffffff;stroke-width:0.26458332px"
           y="126.96671"
           x="52.022064"
           id="tspan7510"
           sodipodi:role="line">CMYK</tspan></text>
    </g>
    <g
       id="g855"
       transform="translate(1.135879)">
      <g
         transform="matrix(-0.22101785,0,0,-0.22104353,492.04618,-174.16736)"
         id="g7544"
         style="stroke-width:0.93869883">
        <ellipse
           ry="9.7522001"
           rx="9.7505007"
           cy="1010.1596"
           cx="-2164.2087"
           inkscape:transform-center-y="-17.716536"
           id="path17451-0-5"
           style="fill:#00ff00;fill-opacity:1;stroke:none;stroke-width:0.43055731"
           transform="matrix(-0.50004357,0.86600025,0.86605056,0.49995643,0,0)" />
        <ellipse
           ry="9.7505007"
           rx="9.7522001"
           cy="1360.4926"
           cx="1962.1843"
           inkscape:transform-center-x="-9.2057571"
           inkscape:transform-center-y="5.3149818"
           transform="matrix(1,5.0298275e-5,-5.0317715e-5,-1,0,0)"
           id="path17453-2-7"
           style="fill:#ff0000;fill-opacity:1;stroke:none;stroke-width:0.43055731" />
        <circle
           r="9.7513504"
           cy="-2388.2351"
           cx="202.38411"
           style="fill:#0000ff;fill-opacity:1;stroke:none;stroke-width:0.43055731"
           id="path17455-5-8"
           transform="matrix(-0.50008714,-0.86597509,-0.86607571,0.49991286,0,0)"
           inkscape:transform-center-y="5.3149734"
           inkscape:transform-center-x="9.2058352" />
        <path
           inkscape:connector-curvature="0"
           style="fill:#ffffff;fill-opacity:1;stroke:none;stroke-width:0.43055731"
           d="m 1957.434,-1368.9504 c 1.3897,-0.762 2.9831,-1.1907 4.68,-1.1907 1.7015,10e-5 3.2984,0.4328 4.6909,1.1987 -0.035,1.5842 -0.4631,3.1756 -1.3113,4.6446 -0.1683,0.2915 -0.3506,0.5709 -0.5436,0.838 -0.7787,1.0797 -1.7378,1.9606 -2.8237,2.6198 -1.3595,-0.823 -2.5414,-1.9744 -3.3922,-3.4478 -0.8486,-1.4693 -1.2653,-3.0783 -1.3002,-4.6627 z"
           id="path17457-1-0" />
        <path
           style="fill:#ffff00;fill-opacity:1;stroke:none;stroke-width:0.43055731"
           d="m 1953.8709,-1365.6057 c 0.8825,-1.3953 2.1165,-2.5257 3.5672,-3.3226 0.038,1.5768 0.4496,3.1773 1.2939,4.6393 0.8477,1.4681 2.0238,2.6168 3.3773,3.4391 -2.879,1.7421 -6.5754,1.9413 -9.724,0.2251 0.038,-1.5956 0.4431,-3.0976 1.1588,-4.415 0.1033,-0.1899 0.2115,-0.3839 0.3268,-0.5659 z"
           id="path17459-1-6"
           inkscape:connector-curvature="0"
           sodipodi:nodetypes="ccccccc" />
        <path
           style="fill:#00ffff;fill-opacity:1;stroke:none;stroke-width:0.43055731"
           d="m 1958.8762,-1374.2741 c 0.7838,-1.2793 1.8799,-2.3805 3.2445,-3.2109 3.0607,1.8683 4.7364,5.1687 4.6671,8.5327 -1.3889,-0.7611 -2.9806,-1.19 -4.676,-1.19 -1.6969,-10e-5 -3.2903,0.4286 -4.68,1.1906 -0.036,-1.8714 0.4676,-3.7278 1.4444,-5.3224 z"
           id="path17461-8-6"
           inkscape:connector-curvature="0"
           sodipodi:nodetypes="cccscc" />
        <path
           style="fill:#ff00ff;fill-opacity:1;stroke:none;stroke-width:0.43055731"
           d="m 1962.1243,-1360.8415 c 1.0859,-0.6591 2.045,-1.5401 2.8237,-2.6197 0.193,-0.2671 0.3753,-0.5466 0.5436,-0.838 0.8483,-1.4691 1.2764,-3.0605 1.3113,-4.6447 2.9536,1.6249 4.9825,4.7383 5.0649,8.3255 -3.1156,1.7058 -6.8706,1.4699 -9.7435,-0.2231"
           id="path17463-3-4"
           inkscape:connector-curvature="0"
           sodipodi:nodetypes="ccsccc" />
      </g>
      <text
         id="text7512-9"
         y="133.40482"
         x="58.312954"
         style="color:#000000;font-style:normal;font-variant:normal;font-weight:bold;font-stretch:normal;font-size:4.23333311px;line-height:100%;font-family:Roboto;-inkscape-font-specification:'Roboto Bold';text-indent:0;text-align:center;text-decoration:none;text-decoration-line:none;text-decoration-style:solid;text-decoration-color:#000000;letter-spacing:0px;word-spacing:0px;text-transform:none;writing-mode:lr-tb;direction:ltr;baseline-shift:baseline;text-anchor:middle;white-space:normal;clip-rule:nonzero;display:inline;overflow:visible;visibility:visible;opacity:1;isolation:auto;mix-blend-mode:normal;color-interpolation:sRGB;color-interpolation-filters:linearRGB;solid-color:#000000;solid-opacity:1;fill:#ffffff;fill-opacity:1;fill-rule:nonzero;stroke:none;stroke-width:0.26458332px;stroke-linecap:butt;stroke-linejoin:miter;stroke-miterlimit:4;stroke-dasharray:none;stroke-dashoffset:0;stroke-opacity:1;color-rendering:auto;image-rendering:auto;shape-rendering:auto;text-rendering:auto;enable-background:accumulate"
         xml:space="preserve"><tspan
           style="font-style:normal;font-variant:normal;font-weight:normal;font-stretch:normal;font-size:2.82222223px;font-family:'Source Sans Pro';-inkscape-font-specification:'Source Sans Pro Bold';text-align:center;text-anchor:middle;fill:#ffffff;stroke-width:0.26458332px"
           y="133.40482"
           x="58.312954"
           id="tspan7510-9"
           sodipodi:role="line">RGB</tspan></text>
    </g>
    <g
       id="g867"
       transform="translate(2.2717924)">
      <g
         id="g17499-2-9"
         transform="matrix(0.06082761,0.10535651,0.10536875,-0.06083468,101.63804,-157.33477)"
         style="stroke-width:0.78224897">
        <circle
           r="17.716536"
           cy="1700.7875"
           cx="1902.7559"
           style="fill:#ffff00;fill-opacity:1;stroke:none;stroke-width:0.78224897"
           id="path17402-9-3"
           inkscape:transform-center-y="-17.716536"
           transform="translate(0,-3160.6298)" />
        <circle
           r="17.716536"
           cy="1700.7875"
           cx="1902.7559"
           style="fill:#ff0000;fill-opacity:1;stroke:none;stroke-width:0.78224897"
           id="path17406-9-6"
           transform="rotate(120,2815.1511,131.10249)"
           inkscape:transform-center-y="5.3149818"
           inkscape:transform-center-x="-9.2057571" />
        <circle
           r="17.716536"
           cy="1700.7875"
           cx="1902.7559"
           inkscape:transform-center-x="9.2058352"
           inkscape:transform-center-y="5.3149734"
           transform="rotate(-120,990.3606,131.10251)"
           id="path17408-3-1"
           style="fill:#0000ff;fill-opacity:1;stroke:none;stroke-width:0.78224897" />
        <path
           id="path17338-7-5"
           d="m 1902.75,1701.5938 c -2.4615,1.4942 -4.5836,3.6115 -6.125,6.2812 -1.5455,2.6769 -2.3153,5.5823 -2.375,8.4688 2.5246,1.3842 5.4177,2.1562 8.5,2.1562 0.6115,0 1.2169,-0.033 1.8125,-0.094 2.4063,-0.2443 4.6638,-0.9528 6.6875,-2.0624 -0.06,-2.8865 -0.7982,-5.7919 -2.3438,-8.4688 -1.5413,-2.6697 -3.6947,-4.787 -6.1562,-6.2812 z"
           style="fill:#000000;fill-opacity:1;stroke:none;stroke-width:0.78224897"
           inkscape:connector-curvature="0"
           transform="translate(0,-3160.6298)" />
        <path
           sodipodi:nodetypes="ccccccc"
           inkscape:connector-curvature="0"
           id="path17412-9-5"
           d="m 1911.25,-1461.6032 c -2.9973,0.1208 -5.8971,1.0354 -8.4688,2.5938 2.4462,1.4929 4.5914,3.5936 6.125,6.25 1.5401,2.6673 2.2792,5.5611 2.3438,8.4374 5.3567,-2.9468 9.028,-8.5812 9.1875,-15.0937 -2.5449,-1.3904 -5.2769,-2.1168 -8,-2.1875 -0.3927,-0.01 -0.7964,-0.016 -1.1875,0 z"
           style="fill:#ff8000;fill-opacity:1;stroke:none;stroke-width:0.78224897" />
        <path
           sodipodi:nodetypes="cccscc"
           inkscape:connector-curvature="0"
           id="path17420-3-2"
           d="m 1893.0625,-1461.6032 c -2.7251,0.071 -5.4536,0.7951 -8,2.1875 0.1595,6.5125 3.8308,12.1469 9.1875,15.0937 0.064,-2.8763 0.835,-5.7701 2.375,-8.4374 1.5414,-2.6697 3.6635,-4.7871 6.125,-6.2813 -2.9124,-1.7561 -6.2909,-2.6507 -9.6875,-2.5625 z"
           style="fill:#00ff00;fill-opacity:1;stroke:none;stroke-width:0.78224897" />
        <path
           sodipodi:nodetypes="ccsccc"
           inkscape:connector-curvature="0"
           id="path17429-9-4"
           d="m 1911.2495,-1444.2907 c -2.0237,1.1096 -4.2812,1.8182 -6.6875,2.0625 -0.5956,0.061 -1.201,0.094 -1.8125,0.094 -3.0823,0 -5.9754,-0.7721 -8.5,-2.1563 -0.1262,6.1228 2.9299,12.143 8.5,15.5313 5.5144,-3.352 8.5543,-9.4738 8.5,-15.5315"
           style="fill:#ff00ff;fill-opacity:1;stroke:none;stroke-width:0.78224897" />
      </g>
      <text
         id="text7512-9-6"
         y="126.96671"
         x="64.548782"
         style="color:#000000;font-style:normal;font-variant:normal;font-weight:bold;font-stretch:normal;font-size:4.23333311px;line-height:100%;font-family:Roboto;-inkscape-font-specification:'Roboto Bold';text-indent:0;text-align:center;text-decoration:none;text-decoration-line:none;text-decoration-style:solid;text-decoration-color:#000000;letter-spacing:0px;word-spacing:0px;text-transform:none;writing-mode:lr-tb;direction:ltr;baseline-shift:baseline;text-anchor:middle;white-space:normal;clip-rule:nonzero;display:inline;overflow:visible;visibility:visible;opacity:1;isolation:auto;mix-blend-mode:normal;color-interpolation:sRGB;color-interpolation-filters:linearRGB;solid-color:#000000;solid-opacity:1;fill:#ffffff;fill-opacity:1;fill-rule:nonzero;stroke:none;stroke-width:0.26458332px;stroke-linecap:butt;stroke-linejoin:miter;stroke-miterlimit:4;stroke-dasharray:none;stroke-dashoffset:0;stroke-opacity:1;color-rendering:auto;image-rendering:auto;shape-rendering:auto;text-rendering:auto;enable-background:accumulate"
         xml:space="preserve"><tspan
           style="font-style:normal;font-variant:normal;font-weight:normal;font-stretch:normal;font-size:2.82222223px;font-family:'Source Sans Pro';-inkscape-font-specification:'Source Sans Pro Bold';text-align:center;text-anchor:middle;fill:#ffffff;stroke-width:0.26458332px"
           y="126.96671"
           x="64.548782"
           id="tspan7510-9-2"
           sodipodi:role="line">BRY</tspan></text>
    </g>
  </g>
</svg>
