<?xml version="1.0" encoding="UTF-8" standalone="no"?>
<svg
   sodipodi:docname="logo-matrix.svg"
   inkscape:version="1.1.2 (1:1.1+202202050950+0a00cf5339)"
   id="svg7381"
   version="1.1"
   viewBox="0 0 118.92398 36.925953"
   height="36.925953mm"
   width="118.92398mm"
   inkscape:export-filename="/mnt/prvnihdd/ap/Private/Sifrovacky/hry/matrix/2022/navic-tools/tools/images/logo-matrix.png"
   inkscape:export-xdpi="149.987"
   inkscape:export-ydpi="149.987"
   xmlns:inkscape="http://www.inkscape.org/namespaces/inkscape"
   xmlns:sodipodi="http://sodipodi.sourceforge.net/DTD/sodipodi-0.dtd"
   xmlns="http://www.w3.org/2000/svg"
   xmlns:svg="http://www.w3.org/2000/svg"
   xmlns:rdf="http://www.w3.org/1999/02/22-rdf-syntax-ns#"
   xmlns:cc="http://creativecommons.org/ns#"
   xmlns:dc="http://purl.org/dc/elements/1.1/">
  <defs
     id="defs7375" />
  <sodipodi:namedview
     id="base"
     pagecolor="#ffffff"
     bordercolor="#666666"
     borderopacity="1.0"
     inkscape:pageopacity="0.0"
     inkscape:pageshadow="2"
     inkscape:zoom="3.959798"
     inkscape:cx="340.92648"
     inkscape:cy="82.327432"
     inkscape:document-units="mm"
     inkscape:current-layer="layer1"
     inkscape:document-rotation="0"
     showgrid="false"
     inkscape:window-width="1920"
     inkscape:window-height="1113"
     inkscape:window-x="1920"
     inkscape:window-y="28"
     inkscape:window-maximized="1"
     inkscape:pagecheckerboard="0" />
  <metadata
     id="metadata7378">
    <rdf:RDF>
      <cc:Work
         rdf:about="">
        <dc:format>image/svg+xml</dc:format>
        <dc:type
           rdf:resource="http://purl.org/dc/dcmitype/StillImage" />
      </cc:Work>
    </rdf:RDF>
  </metadata>
  <g
     inkscape:label="Vrstva 1"
     inkscape:groupmode="layer"
     id="layer1"
     transform="translate(-28.679237,-91.823008)">
    <g
       aria-label="MATRI"
       id="text828-6-7-6-8-4"
       style="font-style:normal;font-variant:normal;font-weight:normal;font-stretch:normal;font-size:27.4743px;line-height:1.25;font-family:Arial;-inkscape-font-specification:'Arial, Normal';font-variant-ligatures:normal;font-variant-caps:normal;font-variant-numeric:normal;font-feature-settings:normal;text-align:start;letter-spacing:0px;word-spacing:0px;writing-mode:lr-tb;text-anchor:start;fill:#e72f04;fill-opacity:1;stroke:#000000;stroke-width:0.8;stroke-miterlimit:4;stroke-dasharray:none">
      <path
         id="path9565"
         style="font-style:normal;font-variant:normal;font-weight:normal;font-stretch:normal;font-family:'Permanent Marker';-inkscape-font-specification:'Permanent Marker';fill:#e72f04;fill-opacity:1;stroke:#000000;stroke-width:0.8;stroke-miterlimit:4;stroke-dasharray:none"
         d="m 31.353397,121.89239 c -2.915332,-0.99239 -2.675709,-5.82554 -1.239228,-8.16315 1.769425,-4.02794 3.333642,-8.29082 6.189431,-11.69134 1.687075,-1.44249 3.220904,1.00284 4.536009,1.91506 1.607573,1.49689 -0.685554,6.8656 3.164307,4.76574 2.994248,-1.51534 5.326616,-4.50988 7.445428,-6.68076 2.024851,0.097 4.460405,3.41498 3.713817,4.55247 -0.500501,1.69123 -0.348303,4.61144 -0.988021,6.65721 -0.243653,2.57155 -0.735661,6.12676 -3.020932,7.49112 -3.786379,0.94238 -2.459689,-5.54134 -1.7947,-7.82063 1.469982,-3.85587 -3.241228,1.37698 -4.755264,1.42494 -2.854464,2.07651 -7.127488,0.64159 -8.203521,-2.05029 -1.315168,2.27109 -1.604535,4.78458 -3.115542,6.75567 -0.21619,1.07556 -0.599316,2.75199 -1.931784,2.84396 z" />
      <path
         id="path9567"
         style="font-style:normal;font-variant:normal;font-weight:normal;font-stretch:normal;font-family:'Permanent Marker';-inkscape-font-specification:'Permanent Marker';fill:#e72f04;fill-opacity:1;stroke:#000000;stroke-width:0.8;stroke-miterlimit:4;stroke-dasharray:none"
         d="m 54.990954,118.96788 c 0.949342,-1.735 1.586791,-4.03964 2.670459,-5.88047 1.413039,-2.67938 2.221982,-5.53538 4.063962,-7.99084 2.31241,0.5159 3.477562,-2.42204 4.754559,-3.38391 3.170272,0.2009 4.086572,2.58456 3.985432,5.42966 0.424676,2.035 0.478141,4.83833 2.609254,4.63494 2.829655,0.62595 1.808126,2.76318 -0.482947,3.67577 1.618581,3.06905 -1.968448,7.98814 -5.151433,5.52705 0.259912,-1.45418 -2.485289,-2.46048 0.348796,-2.68303 2.065406,-3.56854 -4.351042,0.67799 -5.366072,-1.58294 -0.783978,-1.59706 -0.346636,-1.5677 -1.368348,-0.50974 -0.808371,1.39218 -0.692419,4.0678 -2.468395,4.90996 -1.43954,1.80711 -3.072253,-0.82763 -3.595267,-2.14645 z m 8.558888,-6.9759 c -2.437867,1.84101 5.261023,1.47618 3.1358,-0.83335 -0.358343,-1.58755 -0.522015,-3.62659 -1.777512,-1.18556 -0.506238,0.63522 -0.955461,1.31659 -1.358288,2.01891 z" />
      <path
         id="path9569"
         style="font-style:normal;font-variant:normal;font-weight:normal;font-stretch:normal;font-family:'Permanent Marker';-inkscape-font-specification:'Permanent Marker';fill:#e72f04;fill-opacity:1;stroke:#000000;stroke-width:0.8;stroke-miterlimit:4;stroke-dasharray:none"
         d="m 74.201501,106.38443 c -1.30794,-2.11263 -0.355184,-4.23027 2.133014,-3.42762 3.504982,0.27645 6.062258,-1.54419 9.135742,-0.86528 2.837196,-0.003 6.755035,-1.97618 8.820484,0.76464 2.028737,1.86187 -0.608886,3.42222 -2.381195,3.01849 -3.215892,0.15111 -6.922001,-0.0256 -7.271031,4.02455 -0.981477,2.58933 -2.34916,4.98432 -3.165983,7.61983 -0.724785,1.79075 3.069816,3.44362 -0.281718,4.52261 -2.653152,0.0694 -3.86419,-2.77906 -3.638449,-5.17367 0.458283,-3.46918 2.202448,-6.53214 3.437222,-9.65181 -1.981383,0.0698 -4.05865,0.66066 -6.010003,0.0805 -0.186314,-0.43654 -0.861101,-0.46377 -0.778083,-0.91224 z" />
      <path
         id="path9571"
         style="font-style:normal;font-variant:normal;font-weight:normal;font-stretch:normal;font-family:'Permanent Marker';-inkscape-font-specification:'Permanent Marker';fill:#e72f04;fill-opacity:1;stroke:#000000;stroke-width:0.8;stroke-miterlimit:4;stroke-dasharray:none"
         d="m 91.050975,119.20935 c -0.848644,-1.45594 0.433821,-4.28231 0.539962,-6.29511 1.132119,-1.65588 0.168824,-7.19103 2.974818,-5.83226 2.260139,-1.63606 3.999994,-7.215857 7.388415,-4.95858 2.22703,1.38221 3.43087,3.41133 4.21572,5.90435 1.60468,3.87135 -3.19752,6.08166 -6.311866,6.69418 -2.911636,0.83195 2.862896,2.74253 4.031256,2.81048 2.70756,-0.29372 5.00672,1.94329 4.01112,3.85016 -2.14998,2.53911 -5.84084,-0.0264 -8.371077,-0.70432 -2.053563,-0.0906 -4.620252,-4.7615 -4.748975,-0.74455 -0.762947,2.69198 -4.122492,1.75561 -3.729373,-0.72435 z m 8.961345,-12.26148 c -1.584832,1.3341 -4.490927,5.33657 -0.456117,3.38063 2.769647,-0.49023 2.918957,-2.09165 0.456117,-3.38063 z" />
      <path
         id="path9573"
         style="font-style:normal;font-variant:normal;font-weight:normal;font-stretch:normal;font-family:'Permanent Marker';-inkscape-font-specification:'Permanent Marker';fill:#e72f04;fill-opacity:1;stroke:#000000;stroke-width:0.8;stroke-miterlimit:4;stroke-dasharray:none"
         d="m 107.6858,121.83873 c -2.53116,-2.20762 -1.16695,-5.18386 2.20009,-4.50751 2.70257,-0.99639 3.03528,-5.50354 4.20734,-8.10613 0.74758,-1.74527 1.41149,-4.18739 -1.35661,-2.70652 -2.9982,0.34049 -3.59481,-5.64862 0.19453,-4.4002 3.48513,-0.27283 8.48482,-1.75202 11.14802,0.9391 3.26854,2.85588 -4.03692,2.23607 -4.99048,3.19956 -0.97719,3.57233 -1.78029,7.19377 -3.32697,10.56446 1.66725,-0.35268 2.90412,0.66183 3.75627,1.86471 -0.9564,3.28343 -5.04783,1.75449 -7.65002,2.38459 -1.39412,0.24979 -2.75726,0.72989 -4.18217,0.76794 z" />
    </g>
    <path
       id="path874-2"
       style="font-variation-settings:normal;opacity:1;vector-effect:none;fill:#e72f04;fill-opacity:1;stroke:#000000;stroke-width:0.8;stroke-linecap:round;stroke-linejoin:bevel;stroke-miterlimit:4;stroke-dasharray:none;stroke-dashoffset:0;stroke-opacity:1;-inkscape-stroke:none;stop-color:#000000;stop-opacity:1"
       d="m 145.03326,103.24541 c -2.57317,1.43907 -5.36065,4.72269 -7.37611,3.97868 -1.14446,-1.02177 -2.22147,-1.07287 -3.53558,-0.89081 -0.91734,0.12709 -1.45334,1.13874 -2.41974,0.40931 -1.37513,-2.22289 -4.54655,-4.75003 -5.7505,-5.57551 -1.20395,-0.82548 -0.87193,-0.72691 0.0265,1.13664 0.89848,1.86355 3.93914,3.83034 4.13847,6.96013 -1.34092,2.30227 0.17864,5.37503 -2.57755,6.73514 -1.28816,0.92914 -5.13426,4.81386 -4.23497,5.69288 2.84258,-0.59315 4.9217,-4.53568 7.55785,-5.18487 2.15681,0.94303 4.33508,2.04393 6.63221,1.01905 1.94759,1.57797 3.88767,5.01828 6.36026,5.95745 -0.15968,-1.94294 -3.33983,-6.09496 -3.86052,-8.22166 0.61139,-1.36888 1.45718,-3.72956 0.72574,-4.84012 -0.4788,-0.72697 0.33398,-1.6162 1.2663,-2.01157 2.15318,-1.69549 6.25089,-6.1935 4.59407,-5.9389 -0.65394,0.10049 -0.57817,0.23263 -1.54647,0.77416 z"
       sodipodi:nodetypes="scsczzcccccccscsss" />
    <path
       id="path872-6"
       style="opacity:1;fill:#ffffff;fill-opacity:1;fill-rule:nonzero;stroke:#000000;stroke-width:0.8;stroke-linecap:round;stroke-linejoin:bevel;stroke-miterlimit:4;stroke-dasharray:none;stroke-dashoffset:0;stroke-opacity:1;paint-order:normal"
       d="m 134.16869,125.66217 c 1.51836,-0.13518 2.20914,-1.0319 2.90737,-2.13812 1.01046,-1.60091 1.67457,-3.744 1.85691,-5.51788 0.73081,-4.3914 1.45451,-8.78505 2.03845,-13.19886 -0.75007,-3.95338 -3.20089,-3.83488 -5.71474,-3.45753 -1.59324,0.23916 -3.19202,0.98163 -3.65264,2.70516 -0.52625,2.53095 -1.28831,5.17429 -1.66836,7.73171 -0.48808,3.28442 -0.56085,6.48847 -0.97217,9.78141 0.0797,0.98967 0.2332,1.45145 1.20467,2.55702 1.12505,1.28037 2.54821,1.65921 4.00051,1.53709 z m 8.82226,-5.13148 c 1.04899,-3.51586 1.46402,-6.83668 1.74206,-10.49004 0.11684,-1.53532 0.92258,-5.06069 0.92258,-5.06069 l 0.61659,-0.8627 c 0.0623,0.43543 -0.94693,4.74858 -1.21783,7.14606 -0.48687,2.75335 -0.91422,5.51177 -1.48143,8.23603 -0.12041,0.57836 -0.31897,1.22091 -0.4539,1.7958 z m -16.30991,-17.07636 c -0.72594,5.04128 -1.03381,9.77093 -1.60948,14.72742 l -0.86298,1.14407 c 0.11008,-1.28118 0.18271,-2.52912 0.37879,-3.84129 0.55127,-3.68904 1.15618,-7.37342 1.54916,-11.08487 0.0938,-0.41672 0.16828,-0.95578 0.23028,-1.35676 z m -0.0653,-2.22148 c 0.14742,-1.22033 0.31946,-2.431533 0.78078,-3.733404 0.35049,-0.989098 0.70799,-2.521245 1.72387,-3.44344 3.32982,-2.631401 8.01608,-1.952058 11.82644,-0.873661 1.65159,0.574283 2.91188,1.093293 4.07287,2.467611 0.7421,0.878463 1.22555,2.197777 1.64508,3.390467 0.1018,1.068467 0.002,3.101717 0.002,3.101717 l -0.8024,0.46373 c 0,0 -0.005,-1.06222 -0.19585,-1.53699 -0.99246,0.2737 -1.30274,1.33105 -1.73303,2.0807 -0.88624,1.54399 -1.2093,3.31451 -1.53721,4.9774 -0.25199,1.4852 -0.33854,3.01836 -0.81323,4.45111 -0.72649,2.19277 -1.21152,6.66016 -1.33666,10.04844 0.0746,0.73888 0.80263,1.71312 1.63513,1.3391 0.19394,-0.44804 0.26888,-0.79682 0.43658,-1.25229 l 0.49014,0.26221 c -0.23072,0.86938 -0.49632,1.56001 -0.77991,2.4176 -0.85985,1.34042 -1.97481,2.09645 -3.39301,2.52096 -2.21442,0.66284 -4.96917,0.46795 -7.11714,0.0473 v -1e-5 c -1.60902,-0.35234 -3.68854,-1.10584 -5.12637,-2.1561 -1.30497,-0.95321 -2.61374,-3.71208 -2.51999,-4.23006 0.40835,-0.11842 0.51672,-0.25833 0.78486,-0.36223 0.0638,0.32705 0.34003,0.98686 0.64606,0.81565 h 3e-5 c 2.41814,-1.95587 1.63714,-5.44628 2.47585,-8.12696 0.67708,-4.47656 2.44884,-11.63065 1.88428,-13.55502 -0.39309,-1.339865 -1.75715,-0.14808 -2.49951,1.28485 z m 12.82957,-3.936508 c 2.71197,0.371306 4.37396,-2.616759 1.81707,-3.664159 -2.52276,-0.691426 -5.57861,-1.865546 -8.02979,-0.554966 -2.4091,2.306722 1.80113,3.832877 3.71498,3.939923 0.82817,0.129033 1.66362,0.201464 2.49774,0.279202 z"
       sodipodi:nodetypes="cccscscscccscccscccccsccccsccsccccscccccccsccscccczcccccccc" />
  </g>
</svg>
